<svg width="900" height="1125" viewBox="0 0 900 1125" fill="none" xmlns="http://www.w3.org/2000/svg">
  <rect width="900" height="1125" fill="#171817"/>
  <rect x="70" y="70" width="760" height="985" rx="28" fill="#F8F7F2"/>
  <circle cx="202" cy="213" r="70" fill="#9CE7CA"/>
  <circle cx="350" cy="213" r="70" fill="#EEE8D8"/>
  <circle cx="498" cy="213" r="70" fill="#D7ECE5"/>
  <path d="M141 417h618" stroke="#171817" stroke-width="24" stroke-linecap="round"/>
  <path d="M141 507h440" stroke="#7A7A72" stroke-width="20" stroke-linecap="round"/>
  <path d="M141 587h560" stroke="#7A7A72" stroke-width="20" stroke-linecap="round"/>
  <rect x="141" y="704" width="180" height="180" rx="18" fill="#9CE7CA"/>
  <rect x="361" y="704" width="180" height="180" rx="18" fill="#171817"/>
  <rect x="581" y="704" width="180" height="180" rx="18" fill="#EEE8D8"/>
  <path d="M184 794h94M451 747v94M404 794h94M624 794h94" stroke="#F8F7F2" stroke-width="18" stroke-linecap="round"/>
  <path d="M624 794h94" stroke="#171817" stroke-width="18" stroke-linecap="round"/>
  <path d="M141 962h618" stroke="#171817" stroke-width="16" stroke-linecap="round"/>
</svg>
